<?xml version="1.0" encoding="UTF-8" standalone="no"?>
<!DOCTYPE svg PUBLIC "-//W3C//DTD SVG 1.1//EN"
 "http://www.w3.org/Graphics/SVG/1.1/DTD/svg11.dtd">
<!-- Generated by graphviz version 2.38.0 (20140413.2041)
 -->
<!-- Title: roadmap Pages: 1 -->
<svg width="1013pt" height="746pt"
 viewBox="0.00 0.00 1012.92 746.00" xmlns="http://www.w3.org/2000/svg" xmlns:xlink="http://www.w3.org/1999/xlink">
<g id="graph0" class="graph" transform="scale(1 1) rotate(0) translate(4 742)">
<title>roadmap</title>
<polygon fill="white" stroke="none" points="-4,4 -4,-742 1008.92,-742 1008.92,4 -4,4"/>
<!-- cs_algorithms_structures -->
<g id="node1" class="node"><title>cs_algorithms_structures</title>
<ellipse fill="none" stroke="black" cx="682.946" cy="-288" rx="65.7887" ry="18"/>
<text text-anchor="middle" x="682.946" y="-284.3" font-family="Times,serif" font-size="14.00">Data Structures</text>
</g>
<!-- cs_algorithms_structures_graphs -->
<g id="node2" class="node"><title>cs_algorithms_structures_graphs</title>
<ellipse fill="none" stroke="black" cx="921.728" cy="-477" rx="36.2938" ry="18"/>
<text text-anchor="middle" x="921.728" y="-473.3" font-family="Times,serif" font-size="14.00">Graphs</text>
</g>
<!-- cs_algorithms_structures&#45;&gt;cs_algorithms_structures_graphs -->
<g id="edge1" class="edge"><title>cs_algorithms_structures&#45;&gt;cs_algorithms_structures_graphs</title>
<path fill="none" stroke="black" d="M748.218,-290.029C767.827,-293.695 788.017,-301.005 802.535,-315 847.243,-358.095 795.89,-404.862 838.535,-450 848.412,-460.455 862.4,-466.866 876.042,-470.796"/>
<polygon fill="black" stroke="black" points="875.301,-474.218 885.85,-473.241 876.994,-467.426 875.301,-474.218"/>
</g>
<!-- cs_algorithms_structures_trees -->
<g id="node7" class="node"><title>cs_algorithms_structures_trees</title>
<ellipse fill="none" stroke="black" cx="921.728" cy="-423" rx="30.5947" ry="18"/>
<text text-anchor="middle" x="921.728" y="-419.3" font-family="Times,serif" font-size="14.00">Trees</text>
</g>
<!-- cs_algorithms_structures&#45;&gt;cs_algorithms_structures_trees -->
<g id="edge4" class="edge"><title>cs_algorithms_structures&#45;&gt;cs_algorithms_structures_trees</title>
<path fill="none" stroke="black" d="M747.586,-291.547C766.93,-295.33 787.123,-302.326 802.535,-315 832.963,-340.022 809.31,-369.582 838.535,-396 850.395,-406.72 866.601,-413.193 881.489,-417.098"/>
<polygon fill="black" stroke="black" points="880.985,-420.574 891.516,-419.412 882.559,-413.753 880.985,-420.574"/>
</g>
<!-- cs_algorithms_structures_stacks -->
<g id="node18" class="node"><title>cs_algorithms_structures_stacks</title>
<ellipse fill="none" stroke="black" cx="921.728" cy="-369" rx="33.5952" ry="18"/>
<text text-anchor="middle" x="921.728" y="-365.3" font-family="Times,serif" font-size="14.00">Stacks</text>
</g>
<!-- cs_algorithms_structures&#45;&gt;cs_algorithms_structures_stacks -->
<g id="edge16" class="edge"><title>cs_algorithms_structures&#45;&gt;cs_algorithms_structures_stacks</title>
<path fill="none" stroke="black" d="M741.643,-296.098C761.533,-300.188 783.566,-306.216 802.535,-315 820.684,-323.404 820.799,-332.757 838.535,-342 851.718,-348.871 866.994,-354.465 880.773,-358.742"/>
<polygon fill="black" stroke="black" points="879.908,-362.136 890.49,-361.623 881.898,-355.425 879.908,-362.136"/>
</g>
<!-- cs_algorithms_structures_queues -->
<g id="node22" class="node"><title>cs_algorithms_structures_queues</title>
<ellipse fill="none" stroke="black" cx="921.728" cy="-315" rx="37.0935" ry="18"/>
<text text-anchor="middle" x="921.728" y="-311.3" font-family="Times,serif" font-size="14.00">Queues</text>
</g>
<!-- cs_algorithms_structures&#45;&gt;cs_algorithms_structures_queues -->
<g id="edge20" class="edge"><title>cs_algorithms_structures&#45;&gt;cs_algorithms_structures_queues</title>
<path fill="none" stroke="black" d="M744.002,-294.848C784.829,-299.504 837.995,-305.566 875.308,-309.821"/>
<polygon fill="black" stroke="black" points="875.056,-313.315 885.388,-310.97 875.849,-306.36 875.056,-313.315"/>
</g>
<!-- cs_algorithms_structures_lists -->
<g id="node24" class="node"><title>cs_algorithms_structures_lists</title>
<ellipse fill="none" stroke="black" cx="921.728" cy="-261" rx="27.8951" ry="18"/>
<text text-anchor="middle" x="921.728" y="-257.3" font-family="Times,serif" font-size="14.00">Lists</text>
</g>
<!-- cs_algorithms_structures&#45;&gt;cs_algorithms_structures_lists -->
<g id="edge22" class="edge"><title>cs_algorithms_structures&#45;&gt;cs_algorithms_structures_lists</title>
<path fill="none" stroke="black" d="M744.002,-281.152C788.21,-276.111 846.886,-269.42 884.236,-265.161"/>
<polygon fill="black" stroke="black" points="884.637,-268.638 894.176,-264.028 883.844,-261.683 884.637,-268.638"/>
</g>
<!-- cs_algorithms_structures_heaps -->
<g id="node31" class="node"><title>cs_algorithms_structures_heaps</title>
<ellipse fill="none" stroke="black" cx="921.728" cy="-207" rx="32.4942" ry="18"/>
<text text-anchor="middle" x="921.728" y="-203.3" font-family="Times,serif" font-size="14.00">Heaps</text>
</g>
<!-- cs_algorithms_structures&#45;&gt;cs_algorithms_structures_heaps -->
<g id="edge30" class="edge"><title>cs_algorithms_structures&#45;&gt;cs_algorithms_structures_heaps</title>
<path fill="none" stroke="black" d="M723.913,-273.809C755.085,-262.797 799.494,-247.23 838.535,-234 853.187,-229.035 869.354,-223.694 883.445,-219.084"/>
<polygon fill="black" stroke="black" points="884.867,-222.302 893.288,-215.872 882.695,-215.647 884.867,-222.302"/>
</g>
<!-- cs -->
<g id="node3" class="node"><title>cs</title>
<ellipse fill="none" stroke="black" cx="76.0433" cy="-207" rx="76.0865" ry="18"/>
<text text-anchor="middle" x="76.0433" y="-203.3" font-family="Times,serif" font-size="14.00">Computer Science</text>
</g>
<!-- cs_ai -->
<g id="node4" class="node"><title>cs_ai</title>
<ellipse fill="none" stroke="black" cx="357.721" cy="-531" rx="169.77" ry="18"/>
<text text-anchor="middle" x="357.721" y="-527.3" font-family="Times,serif" font-size="14.00">Artificial Intelligence and Machine Learning</text>
</g>
<!-- cs&#45;&gt;cs_ai -->
<g id="edge2" class="edge"><title>cs&#45;&gt;cs_ai</title>
<path fill="none" stroke="black" d="M77.8454,-225.23C81.2145,-277.832 98.6268,-430.783 188.087,-504 194.002,-508.841 200.436,-512.982 207.225,-516.513"/>
<polygon fill="black" stroke="black" points="206.147,-519.873 216.686,-520.959 209.124,-513.538 206.147,-519.873"/>
</g>
<!-- cs_architecture -->
<g id="node5" class="node"><title>cs_architecture</title>
<ellipse fill="none" stroke="black" cx="357.721" cy="-477" rx="95.5831" ry="18"/>
<text text-anchor="middle" x="357.721" y="-473.3" font-family="Times,serif" font-size="14.00">Architecture knowledge</text>
</g>
<!-- cs&#45;&gt;cs_architecture -->
<g id="edge5" class="edge"><title>cs&#45;&gt;cs_architecture</title>
<path fill="none" stroke="black" d="M95.0896,-224.618C117.033,-246.026 155.215,-283.226 188.087,-315 238.35,-363.585 297.293,-420.106 330.498,-451.904"/>
<polygon fill="black" stroke="black" points="328.326,-454.67 337.969,-459.058 333.167,-449.614 328.326,-454.67"/>
</g>
<!-- cs_algorithms -->
<g id="node14" class="node"><title>cs_algorithms</title>
<ellipse fill="none" stroke="black" cx="357.721" cy="-288" rx="120.479" ry="18"/>
<text text-anchor="middle" x="357.721" y="-284.3" font-family="Times,serif" font-size="14.00">Algorithms and data structures</text>
</g>
<!-- cs&#45;&gt;cs_algorithms -->
<g id="edge12" class="edge"><title>cs&#45;&gt;cs_algorithms</title>
<path fill="none" stroke="black" d="M105.305,-223.629C127.193,-235.785 158.648,-251.71 188.087,-261 207.647,-267.173 228.951,-271.982 249.627,-275.712"/>
<polygon fill="black" stroke="black" points="249.266,-279.201 259.716,-277.458 250.459,-272.304 249.266,-279.201"/>
</g>
<!-- cs_blockchain -->
<g id="node17" class="node"><title>cs_blockchain</title>
<ellipse fill="none" stroke="black" cx="357.721" cy="-234" rx="123.478" ry="18"/>
<text text-anchor="middle" x="357.721" y="-230.3" font-family="Times,serif" font-size="14.00">Blockchain and Cryptocurrency</text>
</g>
<!-- cs&#45;&gt;cs_blockchain -->
<g id="edge15" class="edge"><title>cs&#45;&gt;cs_blockchain</title>
<path fill="none" stroke="black" d="M146.896,-213.744C176.295,-216.582 211.254,-219.957 244.124,-223.13"/>
<polygon fill="black" stroke="black" points="243.959,-226.63 254.249,-224.107 244.632,-219.663 243.959,-226.63"/>
</g>
<!-- cs_hardware -->
<g id="node23" class="node"><title>cs_hardware</title>
<ellipse fill="none" stroke="black" cx="357.721" cy="-180" rx="45.4919" ry="18"/>
<text text-anchor="middle" x="357.721" y="-176.3" font-family="Times,serif" font-size="14.00">Hardware</text>
</g>
<!-- cs&#45;&gt;cs_hardware -->
<g id="edge21" class="edge"><title>cs&#45;&gt;cs_hardware</title>
<path fill="none" stroke="black" d="M146.896,-200.256C195.379,-195.576 258.985,-189.435 303.404,-185.147"/>
<polygon fill="black" stroke="black" points="303.801,-188.625 313.418,-184.18 303.128,-181.658 303.801,-188.625"/>
</g>
<!-- cs_security -->
<g id="node26" class="node"><title>cs_security</title>
<ellipse fill="none" stroke="black" cx="357.721" cy="-126" rx="96.6831" ry="18"/>
<text text-anchor="middle" x="357.721" y="-122.3" font-family="Times,serif" font-size="14.00">Security and Encryption</text>
</g>
<!-- cs&#45;&gt;cs_security -->
<g id="edge24" class="edge"><title>cs&#45;&gt;cs_security</title>
<path fill="none" stroke="black" d="M105.305,-190.371C127.193,-178.215 158.648,-162.29 188.087,-153 211.695,-145.549 237.843,-140.087 262.361,-136.108"/>
<polygon fill="black" stroke="black" points="263.05,-139.543 272.392,-134.546 261.973,-132.626 263.05,-139.543"/>
</g>
<!-- code -->
<g id="node27" class="node"><title>code</title>
<ellipse fill="none" stroke="black" cx="357.721" cy="-72" rx="161.372" ry="18"/>
<text text-anchor="middle" x="357.721" y="-68.3" font-family="Times,serif" font-size="14.00">Code Standards and Code Review Process</text>
</g>
<!-- cs&#45;&gt;code -->
<g id="edge25" class="edge"><title>cs&#45;&gt;code</title>
<path fill="none" stroke="black" d="M89.772,-189.011C108.33,-164.298 145.303,-120.471 188.087,-99 198.542,-93.7531 209.779,-89.4821 221.31,-86.0109"/>
<polygon fill="black" stroke="black" points="222.37,-89.3487 231.054,-83.2793 220.481,-82.6085 222.37,-89.3487"/>
</g>
<!-- cs_systems -->
<g id="node30" class="node"><title>cs_systems</title>
<ellipse fill="none" stroke="black" cx="357.721" cy="-18" rx="92.0841" ry="18"/>
<text text-anchor="middle" x="357.721" y="-14.3" font-family="Times,serif" font-size="14.00">Systems Programming</text>
</g>
<!-- cs&#45;&gt;cs_systems -->
<g id="edge28" class="edge"><title>cs&#45;&gt;cs_systems</title>
<path fill="none" stroke="black" d="M83.6988,-189.057C97.4236,-154.785 132.337,-80.2892 188.087,-45 208.035,-32.3729 231.888,-24.9887 255.287,-20.8075"/>
<polygon fill="black" stroke="black" points="255.955,-24.2452 265.275,-19.2057 254.847,-17.3335 255.955,-24.2452"/>
</g>
<!-- cs_architecture_patterns -->
<g id="node6" class="node"><title>cs_architecture_patterns</title>
<ellipse fill="none" stroke="black" cx="682.946" cy="-720" rx="66.0889" ry="18"/>
<text text-anchor="middle" x="682.946" y="-716.3" font-family="Times,serif" font-size="14.00">Design Patterns</text>
</g>
<!-- cs_architecture&#45;&gt;cs_architecture_patterns -->
<g id="edge3" class="edge"><title>cs_architecture&#45;&gt;cs_architecture_patterns</title>
<path fill="none" stroke="black" d="M450.068,-472.221C478.116,-475.418 506.935,-484.172 527.356,-504 588.705,-563.568 503.979,-631.467 563.356,-693 574.892,-704.954 590.537,-712.11 606.676,-716.289"/>
<polygon fill="black" stroke="black" points="606.236,-719.777 616.757,-718.523 607.751,-712.942 606.236,-719.777"/>
</g>
<!-- cs_architecture_oop -->
<g id="node8" class="node"><title>cs_architecture_oop</title>
<ellipse fill="none" stroke="black" cx="682.946" cy="-666" rx="119.679" ry="18"/>
<text text-anchor="middle" x="682.946" y="-662.3" font-family="Times,serif" font-size="14.00">Object&#45;Oriented Programming</text>
</g>
<!-- cs_architecture&#45;&gt;cs_architecture_oop -->
<g id="edge13" class="edge"><title>cs_architecture&#45;&gt;cs_architecture_oop</title>
<path fill="none" stroke="black" d="M451.432,-473.367C478.74,-476.811 506.781,-485.42 527.356,-504 573.443,-545.617 518.648,-595.905 563.356,-639 567.996,-643.472 573.214,-647.261 578.807,-650.467"/>
<polygon fill="black" stroke="black" points="577.371,-653.663 587.876,-655.039 580.522,-647.412 577.371,-653.663"/>
</g>
<!-- cs_architecture_event -->
<g id="node12" class="node"><title>cs_architecture_event</title>
<ellipse fill="none" stroke="black" cx="682.946" cy="-612" rx="65.7887" ry="18"/>
<text text-anchor="middle" x="682.946" y="-608.3" font-family="Times,serif" font-size="14.00">Event Sourcing</text>
</g>
<!-- cs_architecture&#45;&gt;cs_architecture_event -->
<g id="edge8" class="edge"><title>cs_architecture&#45;&gt;cs_architecture_event</title>
<path fill="none" stroke="black" d="M453.241,-475.876C479.384,-479.655 506.322,-487.821 527.356,-504 558.583,-528.019 532.928,-559.978 563.356,-585 576.12,-595.496 592.161,-602.097 608.285,-606.205"/>
<polygon fill="black" stroke="black" points="607.782,-609.68 618.306,-608.453 609.315,-602.849 607.782,-609.68"/>
</g>
<!-- cs_architecture_solid -->
<g id="node13" class="node"><title>cs_architecture_solid</title>
<ellipse fill="none" stroke="black" cx="682.946" cy="-558" rx="36.2938" ry="18"/>
<text text-anchor="middle" x="682.946" y="-554.3" font-family="Times,serif" font-size="14.00">SOLID</text>
</g>
<!-- cs_architecture&#45;&gt;cs_architecture_solid -->
<g id="edge9" class="edge"><title>cs_architecture&#45;&gt;cs_architecture_solid</title>
<path fill="none" stroke="black" d="M448.059,-483.126C474.341,-487.079 502.653,-493.523 527.356,-504 545.769,-511.809 545.208,-522.596 563.356,-531 586.535,-541.734 614.289,-548.352 637.118,-552.348"/>
<polygon fill="black" stroke="black" points="636.792,-555.841 647.227,-554.005 637.925,-548.933 636.792,-555.841"/>
</g>
<!-- cs_architecture_ddd -->
<g id="node15" class="node"><title>cs_architecture_ddd</title>
<ellipse fill="none" stroke="black" cx="682.946" cy="-504" rx="94.4839" ry="18"/>
<text text-anchor="middle" x="682.946" y="-500.3" font-family="Times,serif" font-size="14.00">Domain&#45;Driven Design</text>
</g>
<!-- cs_architecture&#45;&gt;cs_architecture_ddd -->
<g id="edge11" class="edge"><title>cs_architecture&#45;&gt;cs_architecture_ddd</title>
<path fill="none" stroke="black" d="M445.34,-484.236C488.802,-487.866 541.562,-492.273 586.223,-496.004"/>
<polygon fill="black" stroke="black" points="585.953,-499.493 596.209,-496.838 586.535,-492.518 585.953,-499.493"/>
</g>
<!-- cs_architecture_distributed -->
<g id="node16" class="node"><title>cs_architecture_distributed</title>
<ellipse fill="none" stroke="black" cx="682.946" cy="-450" rx="82.5854" ry="18"/>
<text text-anchor="middle" x="682.946" y="-446.3" font-family="Times,serif" font-size="14.00">Distributed Systems</text>
</g>
<!-- cs_architecture&#45;&gt;cs_architecture_distributed -->
<g id="edge14" class="edge"><title>cs_architecture&#45;&gt;cs_architecture_distributed</title>
<path fill="none" stroke="black" d="M445.34,-469.764C491.855,-465.879 549.02,-461.104 595.508,-457.22"/>
<polygon fill="black" stroke="black" points="595.887,-460.701 605.56,-456.381 595.304,-453.725 595.887,-460.701"/>
</g>
<!-- cs_architecture_microservices -->
<g id="node19" class="node"><title>cs_architecture_microservices</title>
<ellipse fill="none" stroke="black" cx="682.946" cy="-396" rx="61.1893" ry="18"/>
<text text-anchor="middle" x="682.946" y="-392.3" font-family="Times,serif" font-size="14.00">Microservices</text>
</g>
<!-- cs_architecture&#45;&gt;cs_architecture_microservices -->
<g id="edge17" class="edge"><title>cs_architecture&#45;&gt;cs_architecture_microservices</title>
<path fill="none" stroke="black" d="M412.88,-462.169C454.055,-451.025 512.153,-435.581 563.356,-423 582.913,-418.195 604.358,-413.222 623.57,-408.874"/>
<polygon fill="black" stroke="black" points="624.405,-412.274 633.391,-406.662 622.866,-405.445 624.405,-412.274"/>
</g>
<!-- cs_architecture_func -->
<g id="node25" class="node"><title>cs_architecture_func</title>
<ellipse fill="none" stroke="black" cx="682.946" cy="-342" rx="100.182" ry="18"/>
<text text-anchor="middle" x="682.946" y="-338.3" font-family="Times,serif" font-size="14.00">Functional Programming</text>
</g>
<!-- cs_architecture&#45;&gt;cs_architecture_func -->
<g id="edge23" class="edge"><title>cs_architecture&#45;&gt;cs_architecture_func</title>
<path fill="none" stroke="black" d="M385.784,-459.749C423.972,-436.11 496.492,-393.767 563.356,-369 575.585,-364.471 588.815,-360.555 601.852,-357.221"/>
<polygon fill="black" stroke="black" points="602.888,-360.571 611.763,-354.784 601.217,-353.773 602.888,-360.571"/>
</g>
<!-- cs_architecture_oop_polymorphism -->
<g id="node9" class="node"><title>cs_architecture_oop_polymorphism</title>
<ellipse fill="none" stroke="black" cx="921.728" cy="-720" rx="63.8893" ry="18"/>
<text text-anchor="middle" x="921.728" y="-716.3" font-family="Times,serif" font-size="14.00">Polymorphism</text>
</g>
<!-- cs_architecture_oop&#45;&gt;cs_architecture_oop_polymorphism -->
<g id="edge6" class="edge"><title>cs_architecture_oop&#45;&gt;cs_architecture_oop_polymorphism</title>
<path fill="none" stroke="black" d="M749.811,-680.987C766.975,-684.895 785.448,-689.103 802.535,-693 821.757,-697.384 842.735,-702.174 861.611,-706.487"/>
<polygon fill="black" stroke="black" points="861.034,-709.945 871.563,-708.76 862.594,-703.121 861.034,-709.945"/>
</g>
<!-- cs_architecture_oop_inheritance -->
<g id="node28" class="node"><title>cs_architecture_oop_inheritance</title>
<ellipse fill="none" stroke="black" cx="921.728" cy="-666" rx="50.0912" ry="18"/>
<text text-anchor="middle" x="921.728" y="-662.3" font-family="Times,serif" font-size="14.00">Inheritance</text>
</g>
<!-- cs_architecture_oop&#45;&gt;cs_architecture_oop_inheritance -->
<g id="edge26" class="edge"><title>cs_architecture_oop&#45;&gt;cs_architecture_oop_inheritance</title>
<path fill="none" stroke="black" d="M802.684,-666C823.132,-666 843.566,-666 861.546,-666"/>
<polygon fill="black" stroke="black" points="861.548,-669.5 871.548,-666 861.548,-662.5 861.548,-669.5"/>
</g>
<!-- cs_architecture_oop_encapsulation -->
<g id="node29" class="node"><title>cs_architecture_oop_encapsulation</title>
<ellipse fill="none" stroke="black" cx="921.728" cy="-612" rx="60.3893" ry="18"/>
<text text-anchor="middle" x="921.728" y="-608.3" font-family="Times,serif" font-size="14.00">Encapsulation</text>
</g>
<!-- cs_architecture_oop&#45;&gt;cs_architecture_oop_encapsulation -->
<g id="edge27" class="edge"><title>cs_architecture_oop&#45;&gt;cs_architecture_oop_encapsulation</title>
<path fill="none" stroke="black" d="M749.811,-651.013C766.975,-647.105 785.448,-642.897 802.535,-639 822.369,-634.477 844.074,-629.52 863.41,-625.102"/>
<polygon fill="black" stroke="black" points="864.314,-628.486 873.283,-622.847 862.755,-621.662 864.314,-628.486"/>
</g>
<!-- cs_algorithms_algorithms -->
<g id="node10" class="node"><title>cs_algorithms_algorithms</title>
<ellipse fill="none" stroke="black" cx="682.946" cy="-180" rx="51.1914" ry="18"/>
<text text-anchor="middle" x="682.946" y="-176.3" font-family="Times,serif" font-size="14.00">Algorithms</text>
</g>
<!-- cs_algorithms_structures_sorting -->
<g id="node11" class="node"><title>cs_algorithms_structures_sorting</title>
<ellipse fill="none" stroke="black" cx="921.728" cy="-153" rx="72.5877" ry="18"/>
<text text-anchor="middle" x="921.728" y="-149.3" font-family="Times,serif" font-size="14.00">Sorting algoritms</text>
</g>
<!-- cs_algorithms_algorithms&#45;&gt;cs_algorithms_structures_sorting -->
<g id="edge7" class="edge"><title>cs_algorithms_algorithms&#45;&gt;cs_algorithms_structures_sorting</title>
<path fill="none" stroke="black" d="M732.148,-174.504C764.53,-170.811 807.878,-165.868 844.847,-161.653"/>
<polygon fill="black" stroke="black" points="845.552,-165.095 855.091,-160.484 844.759,-158.14 845.552,-165.095"/>
</g>
<!-- cs_algorithms_structures_research -->
<g id="node20" class="node"><title>cs_algorithms_structures_research</title>
<ellipse fill="none" stroke="black" cx="921.728" cy="-99" rx="83.3857" ry="18"/>
<text text-anchor="middle" x="921.728" y="-95.3" font-family="Times,serif" font-size="14.00">Reasearch algoritms</text>
</g>
<!-- cs_algorithms_algorithms&#45;&gt;cs_algorithms_structures_research -->
<g id="edge18" class="edge"><title>cs_algorithms_algorithms&#45;&gt;cs_algorithms_structures_research</title>
<path fill="none" stroke="black" d="M731.325,-173.894C753.648,-169.857 780.213,-163.337 802.535,-153 820.684,-144.596 820.799,-135.243 838.535,-126 845.128,-122.564 852.245,-119.447 859.436,-116.655"/>
<polygon fill="black" stroke="black" points="861.067,-119.784 869.245,-113.048 858.652,-113.214 861.067,-119.784"/>
</g>
<!-- cs_algorithms&#45;&gt;cs_algorithms_structures -->
<g id="edge29" class="edge"><title>cs_algorithms&#45;&gt;cs_algorithms_structures</title>
<path fill="none" stroke="black" d="M478.16,-288C521.246,-288 568.632,-288 606.859,-288"/>
<polygon fill="black" stroke="black" points="606.878,-291.5 616.878,-288 606.878,-284.5 606.878,-291.5"/>
</g>
<!-- cs_algorithms&#45;&gt;cs_algorithms_algorithms -->
<g id="edge10" class="edge"><title>cs_algorithms&#45;&gt;cs_algorithms_algorithms</title>
<path fill="none" stroke="black" d="M456.768,-277.79C480.248,-273.85 504.987,-268.43 527.356,-261 571.656,-246.285 618.624,-219.945 649.005,-201.302"/>
<polygon fill="black" stroke="black" points="651.235,-204.037 657.879,-195.784 647.539,-198.092 651.235,-204.037"/>
</g>
<!-- cs_algorithms_analysis -->
<g id="node21" class="node"><title>cs_algorithms_analysis</title>
<ellipse fill="none" stroke="black" cx="682.946" cy="-126" rx="41.6928" ry="18"/>
<text text-anchor="middle" x="682.946" y="-122.3" font-family="Times,serif" font-size="14.00">Analysis</text>
</g>
<!-- cs_algorithms&#45;&gt;cs_algorithms_analysis -->
<g id="edge19" class="edge"><title>cs_algorithms&#45;&gt;cs_algorithms_analysis</title>
<path fill="none" stroke="black" d="M477.464,-285.714C495.673,-280.864 513.117,-273.089 527.356,-261 565.927,-228.254 525.872,-186.984 563.356,-153 581.616,-136.445 607.88,-129.374 631.051,-126.58"/>
<polygon fill="black" stroke="black" points="631.485,-130.054 641.099,-125.603 630.808,-123.087 631.485,-130.054"/>
</g>
</g>
</svg>
