<?xml version="1.0" encoding="UTF-8" standalone="no"?>
<!DOCTYPE svg PUBLIC "-//W3C//DTD SVG 1.1//EN"
 "http://www.w3.org/Graphics/SVG/1.1/DTD/svg11.dtd">
<!-- Generated by graphviz version 2.43.0 (0)
 -->
<!-- Title: roadmap Pages: 1 -->
<svg width="1318pt" height="422pt"
 viewBox="0.00 0.00 1318.39 422.00" xmlns="http://www.w3.org/2000/svg" xmlns:xlink="http://www.w3.org/1999/xlink">
<g id="graph0" class="graph" transform="scale(1 1) rotate(0) translate(4 418)">
<title>roadmap</title>
<polygon fill="white" stroke="transparent" points="-4,4 -4,-418 1314.39,-418 1314.39,4 -4,4"/>
<!-- ai -->
<g id="node1" class="node">
<title>ai</title>
<ellipse fill="none" stroke="black" cx="286.88" cy="-207" rx="107.78" ry="18"/>
<text text-anchor="middle" x="286.88" y="-203.3" font-family="Times,serif" font-size="14.00">Artificial Intelligence</text>
</g>
<!-- ai_ml -->
<g id="node2" class="node">
<title>ai_ml</title>
<ellipse fill="none" stroke="black" cx="578.96" cy="-342" rx="94.78" ry="18"/>
<text text-anchor="middle" x="578.96" y="-338.3" font-family="Times,serif" font-size="14.00">Machine Learning</text>
</g>
<!-- ai&#45;&gt;ai_ml -->
<g id="edge1" class="edge">
<title>ai&#45;&gt;ai_ml</title>
<path fill="none" stroke="black" d="M324.32,-223.96C377.22,-248.58 475.22,-294.19 532.68,-320.93"/>
<polygon fill="black" stroke="black" points="531.34,-324.17 541.89,-325.21 534.3,-317.82 531.34,-324.17"/>
</g>
<!-- ai_nlp -->
<g id="node3" class="node">
<title>ai_nlp</title>
<ellipse fill="none" stroke="black" cx="578.96" cy="-207" rx="148.37" ry="18"/>
<text text-anchor="middle" x="578.96" y="-203.3" font-family="Times,serif" font-size="14.00">Natural Language Processing</text>
</g>
<!-- ai&#45;&gt;ai_nlp -->
<g id="edge2" class="edge">
<title>ai&#45;&gt;ai_nlp</title>
<path fill="none" stroke="black" d="M395.07,-207C403.42,-207 411.95,-207 420.54,-207"/>
<polygon fill="black" stroke="black" points="420.65,-210.5 430.65,-207 420.65,-203.5 420.65,-210.5"/>
</g>
<!-- ai_cv -->
<g id="node4" class="node">
<title>ai_cv</title>
<ellipse fill="none" stroke="black" cx="578.96" cy="-153" rx="88.28" ry="18"/>
<text text-anchor="middle" x="578.96" y="-149.3" font-family="Times,serif" font-size="14.00">Computer Vision</text>
</g>
<!-- ai&#45;&gt;ai_cv -->
<g id="edge3" class="edge">
<title>ai&#45;&gt;ai_cv</title>
<path fill="none" stroke="black" d="M358.73,-193.54C381.7,-189.19 407.31,-184.37 430.77,-180 454.02,-175.67 479.34,-171.01 502.33,-166.79"/>
<polygon fill="black" stroke="black" points="503.16,-170.2 512.36,-164.95 501.9,-163.31 503.16,-170.2"/>
</g>
<!-- ai_ml_dl -->
<g id="node5" class="node">
<title>ai_ml_dl</title>
<ellipse fill="none" stroke="black" cx="1036.77" cy="-396" rx="79.09" ry="18"/>
<text text-anchor="middle" x="1036.77" y="-392.3" font-family="Times,serif" font-size="14.00">Deep Learning</text>
</g>
<!-- ai_ml&#45;&gt;ai_ml_dl -->
<g id="edge4" class="edge">
<title>ai_ml&#45;&gt;ai_ml_dl</title>
<path fill="none" stroke="black" d="M652.5,-353.5C686.11,-358.63 726.61,-364.5 763.14,-369 826.45,-376.8 898.24,-383.83 952.26,-388.77"/>
<polygon fill="black" stroke="black" points="952.2,-392.28 962.48,-389.7 952.83,-385.31 952.2,-392.28"/>
</g>
<!-- ai_nlp_text_speach -->
<g id="node6" class="node">
<title>ai_nlp_text_speach</title>
<ellipse fill="none" stroke="black" cx="1036.77" cy="-342" rx="139.18" ry="18"/>
<text text-anchor="middle" x="1036.77" y="-338.3" font-family="Times,serif" font-size="14.00">Text and speech processing</text>
</g>
<!-- ai_nlp&#45;&gt;ai_nlp_text_speach -->
<g id="edge5" class="edge">
<title>ai_nlp&#45;&gt;ai_nlp_text_speach</title>
<path fill="none" stroke="black" d="M602.65,-224.87C635.79,-249.85 700.32,-294.48 763.14,-315 802.72,-327.93 847.1,-335.17 888.38,-339.11"/>
<polygon fill="black" stroke="black" points="888.25,-342.61 898.52,-340.01 888.88,-335.64 888.25,-342.61"/>
</g>
<!-- ai_nlp_morphologic -->
<g id="node7" class="node">
<title>ai_nlp_morphologic</title>
<ellipse fill="none" stroke="black" cx="1036.77" cy="-288" rx="117.78" ry="18"/>
<text text-anchor="middle" x="1036.77" y="-284.3" font-family="Times,serif" font-size="14.00">Morphological analysis</text>
</g>
<!-- ai_nlp&#45;&gt;ai_nlp_morphologic -->
<g id="edge6" class="edge">
<title>ai_nlp&#45;&gt;ai_nlp_morphologic</title>
<path fill="none" stroke="black" d="M628.7,-224.1C665.26,-236.25 716.77,-251.95 763.14,-261 812.72,-270.67 868.08,-276.97 915.89,-281.02"/>
<polygon fill="black" stroke="black" points="915.72,-284.52 925.97,-281.85 916.29,-277.54 915.72,-284.52"/>
</g>
<!-- ai_nlp_syntactic -->
<g id="node8" class="node">
<title>ai_nlp_syntactic</title>
<ellipse fill="none" stroke="black" cx="1036.77" cy="-234" rx="94.78" ry="18"/>
<text text-anchor="middle" x="1036.77" y="-230.3" font-family="Times,serif" font-size="14.00">Syntactic analysis</text>
</g>
<!-- ai_nlp&#45;&gt;ai_nlp_syntactic -->
<g id="edge7" class="edge">
<title>ai_nlp&#45;&gt;ai_nlp_syntactic</title>
<path fill="none" stroke="black" d="M712.41,-214.85C783.64,-219.07 870.06,-224.18 935.63,-228.07"/>
<polygon fill="black" stroke="black" points="935.78,-231.58 945.97,-228.68 936.19,-224.6 935.78,-231.58"/>
</g>
<!-- ai_nlp_lexic -->
<g id="node9" class="node">
<title>ai_nlp_lexic</title>
<ellipse fill="none" stroke="black" cx="1036.77" cy="-180" rx="241.26" ry="18"/>
<text text-anchor="middle" x="1036.77" y="-176.3" font-family="Times,serif" font-size="14.00">Lexical semantics (of individual words in context)</text>
</g>
<!-- ai_nlp&#45;&gt;ai_nlp_lexic -->
<g id="edge8" class="edge">
<title>ai_nlp&#45;&gt;ai_nlp_lexic</title>
<path fill="none" stroke="black" d="M712.41,-199.15C751.46,-196.84 795.09,-194.26 837.33,-191.75"/>
<polygon fill="black" stroke="black" points="837.69,-195.24 847.46,-191.15 837.27,-188.25 837.69,-195.24"/>
</g>
<!-- ai_nlp_relational -->
<g id="node10" class="node">
<title>ai_nlp_relational</title>
<ellipse fill="none" stroke="black" cx="1036.77" cy="-126" rx="273.75" ry="18"/>
<text text-anchor="middle" x="1036.77" y="-122.3" font-family="Times,serif" font-size="14.00">Relational semantics (semantics of individual sentences)</text>
</g>
<!-- ai_nlp&#45;&gt;ai_nlp_relational -->
<g id="edge9" class="edge">
<title>ai_nlp&#45;&gt;ai_nlp_relational</title>
<path fill="none" stroke="black" d="M683.91,-194.18C698.75,-190.57 713.58,-185.94 727.14,-180 745.46,-171.98 744.5,-160.25 763.14,-153 777.32,-147.48 792.22,-142.92 807.42,-139.17"/>
<polygon fill="black" stroke="black" points="808.52,-142.5 817.46,-136.81 806.92,-135.69 808.52,-142.5"/>
</g>
<!-- ai_nlp_discourse -->
<g id="node11" class="node">
<title>ai_nlp_discourse</title>
<ellipse fill="none" stroke="black" cx="1036.77" cy="-72" rx="247.76" ry="18"/>
<text text-anchor="middle" x="1036.77" y="-68.3" font-family="Times,serif" font-size="14.00">Discourse (semantics beyond individual sentences)</text>
</g>
<!-- ai_nlp&#45;&gt;ai_nlp_discourse -->
<g id="edge10" class="edge">
<title>ai_nlp&#45;&gt;ai_nlp_discourse</title>
<path fill="none" stroke="black" d="M698.22,-196.24C708.62,-192.14 718.47,-186.83 727.14,-180 758.09,-155.63 731.21,-122.07 763.14,-99 772.39,-92.32 782.29,-86.66 792.65,-81.88"/>
<polygon fill="black" stroke="black" points="794.07,-85.07 801.86,-77.9 791.3,-78.65 794.07,-85.07"/>
</g>
<!-- ai_nlp_hl -->
<g id="node12" class="node">
<title>ai_nlp_hl</title>
<ellipse fill="none" stroke="black" cx="1036.77" cy="-18" rx="149.47" ry="18"/>
<text text-anchor="middle" x="1036.77" y="-14.3" font-family="Times,serif" font-size="14.00">Higher&#45;level NLP applications</text>
</g>
<!-- ai_nlp&#45;&gt;ai_nlp_hl -->
<g id="edge11" class="edge">
<title>ai_nlp&#45;&gt;ai_nlp_hl</title>
<path fill="none" stroke="black" d="M701.54,-196.67C710.89,-192.42 719.6,-186.96 727.14,-180 772.75,-137.86 715.83,-85.21 763.14,-45 811.43,-3.96 883.31,1.68 941.14,-2.36"/>
<polygon fill="black" stroke="black" points="941.15,-5.87 951.4,-3.19 941.71,1.11 941.15,-5.87"/>
</g>
<!-- data_science -->
<g id="node13" class="node">
<title>data_science</title>
<ellipse fill="none" stroke="black" cx="71.49" cy="-153" rx="71.49" ry="18"/>
<text text-anchor="middle" x="71.49" y="-149.3" font-family="Times,serif" font-size="14.00">Data Science</text>
</g>
<!-- data_science&#45;&gt;ai -->
<g id="edge14" class="edge">
<title>data_science&#45;&gt;ai</title>
<path fill="none" stroke="black" d="M122.6,-165.71C140.41,-170.23 160.59,-175.34 178.99,-180 191.14,-183.08 204.07,-186.34 216.58,-189.51"/>
<polygon fill="black" stroke="black" points="215.96,-192.96 226.51,-192.01 217.67,-186.17 215.96,-192.96"/>
</g>
<!-- python -->
<g id="node14" class="node">
<title>python</title>
<ellipse fill="none" stroke="black" cx="286.88" cy="-153" rx="42.79" ry="18"/>
<text text-anchor="middle" x="286.88" y="-149.3" font-family="Times,serif" font-size="14.00">python</text>
</g>
<!-- data_science&#45;&gt;python -->
<g id="edge12" class="edge">
<title>data_science&#45;&gt;python</title>
<path fill="none" stroke="black" d="M143.25,-153C172.83,-153 206.59,-153 233.83,-153"/>
<polygon fill="black" stroke="black" points="233.93,-156.5 243.93,-153 233.93,-149.5 233.93,-156.5"/>
</g>
<!-- db -->
<g id="node15" class="node">
<title>db</title>
<ellipse fill="none" stroke="black" cx="286.88" cy="-99" rx="27" ry="18"/>
<text text-anchor="middle" x="286.88" y="-95.3" font-family="Times,serif" font-size="14.00">db</text>
</g>
<!-- data_science&#45;&gt;db -->
<g id="edge13" class="edge">
<title>data_science&#45;&gt;db</title>
<path fill="none" stroke="black" d="M122.6,-140.29C140.41,-135.77 160.59,-130.66 178.99,-126 203.23,-119.87 230.56,-112.96 251.52,-107.67"/>
<polygon fill="black" stroke="black" points="252.41,-111.05 261.25,-105.21 250.7,-104.27 252.41,-111.05"/>
</g>
</g>
</svg>
