<?xml version="1.0" encoding="UTF-8" standalone="no"?>
<!DOCTYPE svg PUBLIC "-//W3C//DTD SVG 1.1//EN"
 "http://www.w3.org/Graphics/SVG/1.1/DTD/svg11.dtd">
<!-- Generated by graphviz version 2.43.0 (0)
 -->
<!-- Title: roadmap Pages: 1 -->
<svg width="1814pt" height="1502pt"
 viewBox="0.00 0.00 1814.16 1502.00" xmlns="http://www.w3.org/2000/svg" xmlns:xlink="http://www.w3.org/1999/xlink">
<g id="graph0" class="graph" transform="scale(1 1) rotate(0) translate(4 1498)">
<title>roadmap</title>
<polygon fill="white" stroke="transparent" points="-4,4 -4,-1498 1810.16,-1498 1810.16,4 -4,4"/>
<!-- dsa -->
<g id="node1" class="node">
<title>dsa</title>
<ellipse fill="none" stroke="black" cx="386.32" cy="-653" rx="159.47" ry="18"/>
<text text-anchor="middle" x="386.32" y="-649.3" font-family="Times,serif" font-size="14.00">Data Structures and Algorithms</text>
</g>
<!-- dsa_algorithms -->
<g id="node2" class="node">
<title>dsa_algorithms</title>
<ellipse fill="none" stroke="black" cx="666.7" cy="-1017" rx="61.99" ry="18"/>
<text text-anchor="middle" x="666.7" y="-1013.3" font-family="Times,serif" font-size="14.00">Algorithms</text>
</g>
<!-- dsa&#45;&gt;dsa_algorithms -->
<g id="edge1" class="edge">
<title>dsa&#45;&gt;dsa_algorithms</title>
<path fill="none" stroke="black" d="M401.12,-671.05C446.68,-730.62 592.36,-921.11 645.8,-990.99"/>
<polygon fill="black" stroke="black" points="643.28,-993.45 652.14,-999.27 648.84,-989.2 643.28,-993.45"/>
</g>
<!-- dsa_data -->
<g id="node3" class="node">
<title>dsa_data</title>
<ellipse fill="none" stroke="black" cx="666.7" cy="-653" rx="85.29" ry="18"/>
<text text-anchor="middle" x="666.7" y="-649.3" font-family="Times,serif" font-size="14.00">Data Structures</text>
</g>
<!-- dsa&#45;&gt;dsa_data -->
<g id="edge2" class="edge">
<title>dsa&#45;&gt;dsa_data</title>
<path fill="none" stroke="black" d="M545.62,-653C554.32,-653 562.92,-653 571.28,-653"/>
<polygon fill="black" stroke="black" points="571.35,-656.5 581.35,-653 571.35,-649.5 571.35,-656.5"/>
</g>
<!-- dsa_analysis -->
<g id="node4" class="node">
<title>dsa_analysis</title>
<ellipse fill="none" stroke="black" cx="666.7" cy="-599" rx="49.29" ry="18"/>
<text text-anchor="middle" x="666.7" y="-595.3" font-family="Times,serif" font-size="14.00">Analysis</text>
</g>
<!-- dsa&#45;&gt;dsa_analysis -->
<g id="edge3" class="edge">
<title>dsa&#45;&gt;dsa_analysis</title>
<path fill="none" stroke="black" d="M467.46,-637.45C514.11,-628.41 571.61,-617.25 612.65,-609.29"/>
<polygon fill="black" stroke="black" points="613.56,-612.68 622.71,-607.34 612.23,-605.81 613.56,-612.68"/>
</g>
<!-- dsa_algorithms_sorting -->
<g id="node5" class="node">
<title>dsa_algorithms_sorting</title>
<ellipse fill="none" stroke="black" cx="927.58" cy="-1152" rx="99.38" ry="18"/>
<text text-anchor="middle" x="927.58" y="-1148.3" font-family="Times,serif" font-size="14.00">Sorting Algorithms</text>
</g>
<!-- dsa_algorithms&#45;&gt;dsa_algorithms_sorting -->
<g id="edge4" class="edge">
<title>dsa_algorithms&#45;&gt;dsa_algorithms_sorting</title>
<path fill="none" stroke="black" d="M697.65,-1032.62C743.85,-1056.71 832.65,-1103.02 885.03,-1130.34"/>
<polygon fill="black" stroke="black" points="883.58,-1133.52 894.06,-1135.04 886.81,-1127.32 883.58,-1133.52"/>
</g>
<!-- dsa_algorithms_searching -->
<g id="node6" class="node">
<title>dsa_algorithms_searching</title>
<ellipse fill="none" stroke="black" cx="927.58" cy="-1017" rx="111.58" ry="18"/>
<text text-anchor="middle" x="927.58" y="-1013.3" font-family="Times,serif" font-size="14.00">Searching Algorithms</text>
</g>
<!-- dsa_algorithms&#45;&gt;dsa_algorithms_searching -->
<g id="edge5" class="edge">
<title>dsa_algorithms&#45;&gt;dsa_algorithms_searching</title>
<path fill="none" stroke="black" d="M728.72,-1017C751.78,-1017 778.91,-1017 805.57,-1017"/>
<polygon fill="black" stroke="black" points="805.75,-1020.5 815.75,-1017 805.75,-1013.5 805.75,-1020.5"/>
</g>
<!-- dsa_data_linear -->
<g id="node7" class="node">
<title>dsa_data_linear</title>
<ellipse fill="none" stroke="black" cx="927.58" cy="-653" rx="118.08" ry="18"/>
<text text-anchor="middle" x="927.58" y="-649.3" font-family="Times,serif" font-size="14.00">Linear Data Structures</text>
</g>
<!-- dsa_data&#45;&gt;dsa_data_linear -->
<g id="edge6" class="edge">
<title>dsa_data&#45;&gt;dsa_data_linear</title>
<path fill="none" stroke="black" d="M752.11,-653C766.99,-653 782.79,-653 798.56,-653"/>
<polygon fill="black" stroke="black" points="798.9,-656.5 808.9,-653 798.9,-649.5 798.9,-656.5"/>
</g>
<!-- dsa_data_nonlinear -->
<g id="node8" class="node">
<title>dsa_data_nonlinear</title>
<ellipse fill="none" stroke="black" cx="927.58" cy="-261" rx="139.98" ry="18"/>
<text text-anchor="middle" x="927.58" y="-257.3" font-family="Times,serif" font-size="14.00">Non&#45;Linear Data Structures</text>
</g>
<!-- dsa_data&#45;&gt;dsa_data_nonlinear -->
<g id="edge7" class="edge">
<title>dsa_data&#45;&gt;dsa_data_nonlinear</title>
<path fill="none" stroke="black" d="M727.94,-640.4C736.6,-636.75 744.9,-632.05 751.84,-626 859.37,-532.18 906.27,-357.44 921.06,-289.27"/>
<polygon fill="black" stroke="black" points="924.53,-289.77 923.16,-279.27 917.68,-288.33 924.53,-289.77"/>
</g>
<!-- dsa_algorithms_sorting_comparison -->
<g id="node9" class="node">
<title>dsa_algorithms_sorting_comparison</title>
<ellipse fill="none" stroke="black" cx="1311.3" cy="-1341" rx="188.47" ry="18"/>
<text text-anchor="middle" x="1311.3" y="-1337.3" font-family="Times,serif" font-size="14.00">Comparison&#45;based Sorting Algorithms</text>
</g>
<!-- dsa_algorithms_sorting&#45;&gt;dsa_algorithms_sorting_comparison -->
<g id="edge8" class="edge">
<title>dsa_algorithms_sorting&#45;&gt;dsa_algorithms_sorting_comparison</title>
<path fill="none" stroke="black" d="M962.79,-1168.94C1031.9,-1203.16 1188.12,-1280.51 1265.35,-1318.74"/>
<polygon fill="black" stroke="black" points="1263.85,-1321.91 1274.36,-1323.21 1266.95,-1315.63 1263.85,-1321.91"/>
</g>
<!-- dsa_algorithms_sorting_noncomparison -->
<g id="node10" class="node">
<title>dsa_algorithms_sorting_noncomparison</title>
<ellipse fill="none" stroke="black" cx="1311.3" cy="-1152" rx="207.96" ry="18"/>
<text text-anchor="middle" x="1311.3" y="-1148.3" font-family="Times,serif" font-size="14.00">Non&#45;comparison&#45;based Sorting Algorithms</text>
</g>
<!-- dsa_algorithms_sorting&#45;&gt;dsa_algorithms_sorting_noncomparison -->
<g id="edge9" class="edge">
<title>dsa_algorithms_sorting&#45;&gt;dsa_algorithms_sorting_noncomparison</title>
<path fill="none" stroke="black" d="M1027.38,-1152C1047.87,-1152 1070.22,-1152 1093.09,-1152"/>
<polygon fill="black" stroke="black" points="1093.28,-1155.5 1103.28,-1152 1093.28,-1148.5 1093.28,-1155.5"/>
</g>
<!-- dsa_algorithms_searching_sequential -->
<g id="node11" class="node">
<title>dsa_algorithms_searching_sequential</title>
<ellipse fill="none" stroke="black" cx="1311.3" cy="-1044" rx="164.37" ry="18"/>
<text text-anchor="middle" x="1311.3" y="-1040.3" font-family="Times,serif" font-size="14.00">Sequential Searching Algorithms</text>
</g>
<!-- dsa_algorithms_searching&#45;&gt;dsa_algorithms_searching_sequential -->
<g id="edge10" class="edge">
<title>dsa_algorithms_searching&#45;&gt;dsa_algorithms_searching_sequential</title>
<path fill="none" stroke="black" d="M1030.12,-1024.18C1070.78,-1027.06 1118.41,-1030.43 1162.76,-1033.56"/>
<polygon fill="black" stroke="black" points="1162.54,-1037.06 1172.76,-1034.27 1163.03,-1030.07 1162.54,-1037.06"/>
</g>
<!-- dsa_algorithms_searching_efficient -->
<g id="node12" class="node">
<title>dsa_algorithms_searching_efficient</title>
<ellipse fill="none" stroke="black" cx="1311.3" cy="-990" rx="153.27" ry="18"/>
<text text-anchor="middle" x="1311.3" y="-986.3" font-family="Times,serif" font-size="14.00">Efficient Searching Algorithms</text>
</g>
<!-- dsa_algorithms_searching&#45;&gt;dsa_algorithms_searching_efficient -->
<g id="edge11" class="edge">
<title>dsa_algorithms_searching&#45;&gt;dsa_algorithms_searching_efficient</title>
<path fill="none" stroke="black" d="M1030.12,-1009.82C1072.82,-1006.8 1123.21,-1003.23 1169.41,-999.97"/>
<polygon fill="black" stroke="black" points="1169.78,-1003.45 1179.5,-999.25 1169.28,-996.47 1169.78,-1003.45"/>
</g>
<!-- dsa_data_linear_arrays -->
<g id="node13" class="node">
<title>dsa_data_linear_arrays</title>
<ellipse fill="none" stroke="black" cx="1311.3" cy="-828" rx="41.69" ry="18"/>
<text text-anchor="middle" x="1311.3" y="-824.3" font-family="Times,serif" font-size="14.00">Arrays</text>
</g>
<!-- dsa_data_linear&#45;&gt;dsa_data_linear_arrays -->
<g id="edge12" class="edge">
<title>dsa_data_linear&#45;&gt;dsa_data_linear_arrays</title>
<path fill="none" stroke="black" d="M965.87,-670.1C1038.86,-703.56 1199.78,-777.33 1272.87,-810.84"/>
<polygon fill="black" stroke="black" points="1271.62,-814.12 1282.17,-815.1 1274.53,-807.75 1271.62,-814.12"/>
</g>
<!-- dsa_data_linear_lists -->
<g id="node14" class="node">
<title>dsa_data_linear_lists</title>
<ellipse fill="none" stroke="black" cx="1311.3" cy="-693" rx="67.69" ry="18"/>
<text text-anchor="middle" x="1311.3" y="-689.3" font-family="Times,serif" font-size="14.00">Linked Lists</text>
</g>
<!-- dsa_data_linear&#45;&gt;dsa_data_linear_lists -->
<g id="edge13" class="edge">
<title>dsa_data_linear&#45;&gt;dsa_data_linear_lists</title>
<path fill="none" stroke="black" d="M1025.39,-663.15C1091.48,-670.07 1177.62,-679.1 1237.8,-685.4"/>
<polygon fill="black" stroke="black" points="1237.67,-688.91 1247.98,-686.47 1238.4,-681.95 1237.67,-688.91"/>
</g>
<!-- dsa_data_linear_stacks -->
<g id="node15" class="node">
<title>dsa_data_linear_stacks</title>
<ellipse fill="none" stroke="black" cx="1311.3" cy="-612" rx="41.69" ry="18"/>
<text text-anchor="middle" x="1311.3" y="-608.3" font-family="Times,serif" font-size="14.00">Stacks</text>
</g>
<!-- dsa_data_linear&#45;&gt;dsa_data_linear_stacks -->
<g id="edge14" class="edge">
<title>dsa_data_linear&#45;&gt;dsa_data_linear_stacks</title>
<path fill="none" stroke="black" d="M1024.9,-642.65C1099.91,-634.6 1200.98,-623.74 1260.53,-617.35"/>
<polygon fill="black" stroke="black" points="1261.23,-620.79 1270.79,-616.24 1260.48,-613.83 1261.23,-620.79"/>
</g>
<!-- dsa_data_linear_queues -->
<g id="node16" class="node">
<title>dsa_data_linear_queues</title>
<ellipse fill="none" stroke="black" cx="1311.3" cy="-504" rx="45.49" ry="18"/>
<text text-anchor="middle" x="1311.3" y="-500.3" font-family="Times,serif" font-size="14.00">Queues</text>
</g>
<!-- dsa_data_linear&#45;&gt;dsa_data_linear_queues -->
<g id="edge15" class="edge">
<title>dsa_data_linear&#45;&gt;dsa_data_linear_queues</title>
<path fill="none" stroke="black" d="M971.62,-636.2C1045.61,-607.32 1195.96,-548.63 1268.84,-520.18"/>
<polygon fill="black" stroke="black" points="1270.13,-523.44 1278.17,-516.54 1267.58,-516.92 1270.13,-523.44"/>
</g>
<!-- dsa_data_nonlinear_trees -->
<g id="node17" class="node">
<title>dsa_data_nonlinear_trees</title>
<ellipse fill="none" stroke="black" cx="1311.3" cy="-315" rx="36.29" ry="18"/>
<text text-anchor="middle" x="1311.3" y="-311.3" font-family="Times,serif" font-size="14.00">Trees</text>
</g>
<!-- dsa_data_nonlinear&#45;&gt;dsa_data_nonlinear_trees -->
<g id="edge16" class="edge">
<title>dsa_data_nonlinear&#45;&gt;dsa_data_nonlinear_trees</title>
<path fill="none" stroke="black" d="M1022.45,-274.28C1099.91,-285.24 1206.41,-300.3 1265.76,-308.7"/>
<polygon fill="black" stroke="black" points="1265.53,-312.2 1275.92,-310.14 1266.51,-305.27 1265.53,-312.2"/>
</g>
<!-- dsa_data_nonlinear_graphs -->
<g id="node18" class="node">
<title>dsa_data_nonlinear_graphs</title>
<ellipse fill="none" stroke="black" cx="1311.3" cy="-207" rx="44.39" ry="18"/>
<text text-anchor="middle" x="1311.3" y="-203.3" font-family="Times,serif" font-size="14.00">Graphs</text>
</g>
<!-- dsa_data_nonlinear&#45;&gt;dsa_data_nonlinear_graphs -->
<g id="edge17" class="edge">
<title>dsa_data_nonlinear&#45;&gt;dsa_data_nonlinear_graphs</title>
<path fill="none" stroke="black" d="M1022.45,-247.72C1097.15,-237.15 1198.86,-222.76 1259.24,-214.22"/>
<polygon fill="black" stroke="black" points="1259.87,-217.67 1269.29,-212.8 1258.89,-210.74 1259.87,-217.67"/>
</g>
<!-- dsa_data_nonlinear_heaps -->
<g id="node19" class="node">
<title>dsa_data_nonlinear_heaps</title>
<ellipse fill="none" stroke="black" cx="1311.3" cy="-72" rx="40.09" ry="18"/>
<text text-anchor="middle" x="1311.3" y="-68.3" font-family="Times,serif" font-size="14.00">Heaps</text>
</g>
<!-- dsa_data_nonlinear&#45;&gt;dsa_data_nonlinear_heaps -->
<g id="edge18" class="edge">
<title>dsa_data_nonlinear&#45;&gt;dsa_data_nonlinear_heaps</title>
<path fill="none" stroke="black" d="M963.8,-243.56C1036.22,-207.7 1201.15,-126.04 1274.26,-89.84"/>
<polygon fill="black" stroke="black" points="1276.12,-92.83 1283.53,-85.25 1273.02,-86.55 1276.12,-92.83"/>
</g>
<!-- dsa_algorithms_sorting_comparison_bubble -->
<g id="node20" class="node">
<title>dsa_algorithms_sorting_comparison_bubble</title>
<ellipse fill="none" stroke="black" cx="1680.72" cy="-1476" rx="66.09" ry="18"/>
<text text-anchor="middle" x="1680.72" y="-1472.3" font-family="Times,serif" font-size="14.00">Bubble Sort</text>
</g>
<!-- dsa_algorithms_sorting_comparison&#45;&gt;dsa_algorithms_sorting_comparison_bubble -->
<g id="edge19" class="edge">
<title>dsa_algorithms_sorting_comparison&#45;&gt;dsa_algorithms_sorting_comparison_bubble</title>
<path fill="none" stroke="black" d="M1346.42,-1358.85C1392.65,-1382.41 1478.27,-1423.83 1555.28,-1449 1574.16,-1455.17 1595.11,-1460.34 1614.36,-1464.44"/>
<polygon fill="black" stroke="black" points="1613.74,-1467.89 1624.25,-1466.49 1615.16,-1461.03 1613.74,-1467.89"/>
</g>
<!-- dsa_algorithms_sorting_comparison_selection -->
<g id="node21" class="node">
<title>dsa_algorithms_sorting_comparison_selection</title>
<ellipse fill="none" stroke="black" cx="1680.72" cy="-1422" rx="76.89" ry="18"/>
<text text-anchor="middle" x="1680.72" y="-1418.3" font-family="Times,serif" font-size="14.00">Selection Sort</text>
</g>
<!-- dsa_algorithms_sorting_comparison&#45;&gt;dsa_algorithms_sorting_comparison_selection -->
<g id="edge20" class="edge">
<title>dsa_algorithms_sorting_comparison&#45;&gt;dsa_algorithms_sorting_comparison_selection</title>
<path fill="none" stroke="black" d="M1386.18,-1357.52C1434.32,-1368.26 1498.51,-1382.53 1555.28,-1395 1574.22,-1399.16 1594.8,-1403.64 1613.66,-1407.73"/>
<polygon fill="black" stroke="black" points="1613.13,-1411.2 1623.64,-1409.9 1614.61,-1404.36 1613.13,-1411.2"/>
</g>
<!-- dsa_algorithms_sorting_comparison_insertion -->
<g id="node22" class="node">
<title>dsa_algorithms_sorting_comparison_insertion</title>
<ellipse fill="none" stroke="black" cx="1680.72" cy="-1368" rx="75.29" ry="18"/>
<text text-anchor="middle" x="1680.72" y="-1364.3" font-family="Times,serif" font-size="14.00">Insertion Sort</text>
</g>
<!-- dsa_algorithms_sorting_comparison&#45;&gt;dsa_algorithms_sorting_comparison_insertion -->
<g id="edge21" class="edge">
<title>dsa_algorithms_sorting_comparison&#45;&gt;dsa_algorithms_sorting_comparison_insertion</title>
<path fill="none" stroke="black" d="M1461.21,-1351.94C1507.97,-1355.38 1557.86,-1359.05 1598.14,-1362.01"/>
<polygon fill="black" stroke="black" points="1597.94,-1365.5 1608.17,-1362.74 1598.45,-1358.52 1597.94,-1365.5"/>
</g>
<!-- dsa_algorithms_sorting_comparison_merge -->
<g id="node23" class="node">
<title>dsa_algorithms_sorting_comparison_merge</title>
<ellipse fill="none" stroke="black" cx="1680.72" cy="-1314" rx="63.89" ry="18"/>
<text text-anchor="middle" x="1680.72" y="-1310.3" font-family="Times,serif" font-size="14.00">Merge Sort</text>
</g>
<!-- dsa_algorithms_sorting_comparison&#45;&gt;dsa_algorithms_sorting_comparison_merge -->
<g id="edge22" class="edge">
<title>dsa_algorithms_sorting_comparison&#45;&gt;dsa_algorithms_sorting_comparison_merge</title>
<path fill="none" stroke="black" d="M1461.21,-1330.06C1512.11,-1326.32 1566.72,-1322.3 1608.61,-1319.23"/>
<polygon fill="black" stroke="black" points="1608.98,-1322.71 1618.7,-1318.48 1608.47,-1315.73 1608.98,-1322.71"/>
</g>
<!-- dsa_algorithms_sorting_comparison_quick -->
<g id="node24" class="node">
<title>dsa_algorithms_sorting_comparison_quick</title>
<ellipse fill="none" stroke="black" cx="1680.72" cy="-1260" rx="59.59" ry="18"/>
<text text-anchor="middle" x="1680.72" y="-1256.3" font-family="Times,serif" font-size="14.00">Quick Sort</text>
</g>
<!-- dsa_algorithms_sorting_comparison&#45;&gt;dsa_algorithms_sorting_comparison_quick -->
<g id="edge23" class="edge">
<title>dsa_algorithms_sorting_comparison&#45;&gt;dsa_algorithms_sorting_comparison_quick</title>
<path fill="none" stroke="black" d="M1386.18,-1324.48C1434.32,-1313.74 1498.51,-1299.47 1555.28,-1287 1576.9,-1282.25 1600.64,-1277.09 1621.53,-1272.56"/>
<polygon fill="black" stroke="black" points="1622.51,-1275.93 1631.54,-1270.39 1621.03,-1269.09 1622.51,-1275.93"/>
</g>
<!-- dsa_algorithms_sorting_noncomparison_counting -->
<g id="node25" class="node">
<title>dsa_algorithms_sorting_noncomparison_counting</title>
<ellipse fill="none" stroke="black" cx="1680.72" cy="-1206" rx="76.09" ry="18"/>
<text text-anchor="middle" x="1680.72" y="-1202.3" font-family="Times,serif" font-size="14.00">Counting Sort</text>
</g>
<!-- dsa_algorithms_sorting_noncomparison&#45;&gt;dsa_algorithms_sorting_noncomparison_counting -->
<g id="edge24" class="edge">
<title>dsa_algorithms_sorting_noncomparison&#45;&gt;dsa_algorithms_sorting_noncomparison_counting</title>
<path fill="none" stroke="black" d="M1417.58,-1167.47C1477.65,-1176.3 1551.48,-1187.15 1605.46,-1195.09"/>
<polygon fill="black" stroke="black" points="1605.24,-1198.59 1615.65,-1196.58 1606.26,-1191.67 1605.24,-1198.59"/>
</g>
<!-- dsa_algorithms_sorting_noncomparison_radix -->
<g id="node26" class="node">
<title>dsa_algorithms_sorting_noncomparison_radix</title>
<ellipse fill="none" stroke="black" cx="1680.72" cy="-1152" rx="59.59" ry="18"/>
<text text-anchor="middle" x="1680.72" y="-1148.3" font-family="Times,serif" font-size="14.00">Radix Sort</text>
</g>
<!-- dsa_algorithms_sorting_noncomparison&#45;&gt;dsa_algorithms_sorting_noncomparison_radix -->
<g id="edge25" class="edge">
<title>dsa_algorithms_sorting_noncomparison&#45;&gt;dsa_algorithms_sorting_noncomparison_radix</title>
<path fill="none" stroke="black" d="M1519.36,-1152C1552.17,-1152 1583.96,-1152 1610.47,-1152"/>
<polygon fill="black" stroke="black" points="1610.74,-1155.5 1620.74,-1152 1610.74,-1148.5 1610.74,-1155.5"/>
</g>
<!-- dsa_algorithms_sorting_noncomparison_bucket -->
<g id="node27" class="node">
<title>dsa_algorithms_sorting_noncomparison_bucket</title>
<ellipse fill="none" stroke="black" cx="1680.72" cy="-1098" rx="65.79" ry="18"/>
<text text-anchor="middle" x="1680.72" y="-1094.3" font-family="Times,serif" font-size="14.00">Bucket Sort</text>
</g>
<!-- dsa_algorithms_sorting_noncomparison&#45;&gt;dsa_algorithms_sorting_noncomparison_bucket -->
<g id="edge26" class="edge">
<title>dsa_algorithms_sorting_noncomparison&#45;&gt;dsa_algorithms_sorting_noncomparison_bucket</title>
<path fill="none" stroke="black" d="M1417.58,-1136.53C1480.24,-1127.32 1557.87,-1115.91 1612.33,-1107.9"/>
<polygon fill="black" stroke="black" points="1613.18,-1111.32 1622.56,-1106.4 1612.16,-1104.39 1613.18,-1111.32"/>
</g>
<!-- dsa_algorithms_searching_sequential_linear -->
<g id="node28" class="node">
<title>dsa_algorithms_searching_sequential_linear</title>
<ellipse fill="none" stroke="black" cx="1680.72" cy="-1044" rx="75.29" ry="18"/>
<text text-anchor="middle" x="1680.72" y="-1040.3" font-family="Times,serif" font-size="14.00">Linear Search</text>
</g>
<!-- dsa_algorithms_searching_sequential&#45;&gt;dsa_algorithms_searching_sequential_linear -->
<g id="edge27" class="edge">
<title>dsa_algorithms_searching_sequential&#45;&gt;dsa_algorithms_searching_sequential_linear</title>
<path fill="none" stroke="black" d="M1475.86,-1044C1517,-1044 1559.5,-1044 1594.98,-1044"/>
<polygon fill="black" stroke="black" points="1595.27,-1047.5 1605.27,-1044 1595.27,-1040.5 1595.27,-1047.5"/>
</g>
<!-- dsa_algorithms_searching_efficient_binary -->
<g id="node29" class="node">
<title>dsa_algorithms_searching_efficient_binary</title>
<ellipse fill="none" stroke="black" cx="1680.72" cy="-990" rx="76.89" ry="18"/>
<text text-anchor="middle" x="1680.72" y="-986.3" font-family="Times,serif" font-size="14.00">Binary Search</text>
</g>
<!-- dsa_algorithms_searching_efficient&#45;&gt;dsa_algorithms_searching_efficient_binary -->
<g id="edge28" class="edge">
<title>dsa_algorithms_searching_efficient&#45;&gt;dsa_algorithms_searching_efficient_binary</title>
<path fill="none" stroke="black" d="M1464.92,-990C1508.9,-990 1555.33,-990 1593.73,-990"/>
<polygon fill="black" stroke="black" points="1593.82,-993.5 1603.82,-990 1593.82,-986.5 1593.82,-993.5"/>
</g>
<!-- dsa_algorithms_searching_efficient_hashing -->
<g id="node30" class="node">
<title>dsa_algorithms_searching_efficient_hashing</title>
<ellipse fill="none" stroke="black" cx="1680.72" cy="-936" rx="49.29" ry="18"/>
<text text-anchor="middle" x="1680.72" y="-932.3" font-family="Times,serif" font-size="14.00">Hashing</text>
</g>
<!-- dsa_algorithms_searching_efficient&#45;&gt;dsa_algorithms_searching_efficient_hashing -->
<g id="edge29" class="edge">
<title>dsa_algorithms_searching_efficient&#45;&gt;dsa_algorithms_searching_efficient_hashing</title>
<path fill="none" stroke="black" d="M1407.87,-975.95C1476.87,-965.81 1567.61,-952.48 1624.82,-944.07"/>
<polygon fill="black" stroke="black" points="1625.36,-947.53 1634.74,-942.61 1624.34,-940.6 1625.36,-947.53"/>
</g>
<!-- dsa_data_linear_arrays_static -->
<g id="node31" class="node">
<title>dsa_data_linear_arrays_static</title>
<ellipse fill="none" stroke="black" cx="1680.72" cy="-882" rx="71.49" ry="18"/>
<text text-anchor="middle" x="1680.72" y="-878.3" font-family="Times,serif" font-size="14.00">Static Arrays</text>
</g>
<!-- dsa_data_linear_arrays&#45;&gt;dsa_data_linear_arrays_static -->
<g id="edge30" class="edge">
<title>dsa_data_linear_arrays&#45;&gt;dsa_data_linear_arrays_static</title>
<path fill="none" stroke="black" d="M1350.92,-833.68C1411.93,-842.64 1531.55,-860.22 1608.45,-871.53"/>
<polygon fill="black" stroke="black" points="1608.14,-875.02 1618.55,-873.01 1609.16,-868.09 1608.14,-875.02"/>
</g>
<!-- dsa_data_linear_arrays_dynamic -->
<g id="node32" class="node">
<title>dsa_data_linear_arrays_dynamic</title>
<ellipse fill="none" stroke="black" cx="1680.72" cy="-828" rx="85.29" ry="18"/>
<text text-anchor="middle" x="1680.72" y="-824.3" font-family="Times,serif" font-size="14.00">Dynamic Arrays</text>
</g>
<!-- dsa_data_linear_arrays&#45;&gt;dsa_data_linear_arrays_dynamic -->
<g id="edge31" class="edge">
<title>dsa_data_linear_arrays&#45;&gt;dsa_data_linear_arrays_dynamic</title>
<path fill="none" stroke="black" d="M1353.02,-828C1408.61,-828 1509.9,-828 1585.01,-828"/>
<polygon fill="black" stroke="black" points="1585.43,-831.5 1595.43,-828 1585.43,-824.5 1585.43,-831.5"/>
</g>
<!-- dsa_data_linear_lists_singly -->
<g id="node33" class="node">
<title>dsa_data_linear_lists_singly</title>
<ellipse fill="none" stroke="black" cx="1680.72" cy="-774" rx="99.38" ry="18"/>
<text text-anchor="middle" x="1680.72" y="-770.3" font-family="Times,serif" font-size="14.00">Singly Linked Lists</text>
</g>
<!-- dsa_data_linear_lists&#45;&gt;dsa_data_linear_lists_singly -->
<g id="edge32" class="edge">
<title>dsa_data_linear_lists&#45;&gt;dsa_data_linear_lists_singly</title>
<path fill="none" stroke="black" d="M1363.48,-704.45C1412.64,-715.43 1489.01,-732.45 1555.28,-747 1571.64,-750.59 1589.22,-754.42 1605.86,-758.04"/>
<polygon fill="black" stroke="black" points="1605.56,-761.56 1616.08,-760.26 1607.05,-754.72 1605.56,-761.56"/>
</g>
<!-- dsa_data_linear_lists_doubly -->
<g id="node34" class="node">
<title>dsa_data_linear_lists_doubly</title>
<ellipse fill="none" stroke="black" cx="1680.72" cy="-720" rx="102.88" ry="18"/>
<text text-anchor="middle" x="1680.72" y="-716.3" font-family="Times,serif" font-size="14.00">Doubly Linked Lists</text>
</g>
<!-- dsa_data_linear_lists&#45;&gt;dsa_data_linear_lists_doubly -->
<g id="edge33" class="edge">
<title>dsa_data_linear_lists&#45;&gt;dsa_data_linear_lists_doubly</title>
<path fill="none" stroke="black" d="M1376.72,-697.73C1431.61,-701.77 1511.54,-707.64 1575.53,-712.34"/>
<polygon fill="black" stroke="black" points="1575.43,-715.85 1585.66,-713.09 1575.94,-708.86 1575.43,-715.85"/>
</g>
<!-- dsa_data_linear_lists_circular -->
<g id="node35" class="node">
<title>dsa_data_linear_lists_circular</title>
<ellipse fill="none" stroke="black" cx="1680.72" cy="-666" rx="107.78" ry="18"/>
<text text-anchor="middle" x="1680.72" y="-662.3" font-family="Times,serif" font-size="14.00">Circular Linked Lists</text>
</g>
<!-- dsa_data_linear_lists&#45;&gt;dsa_data_linear_lists_circular -->
<g id="edge34" class="edge">
<title>dsa_data_linear_lists&#45;&gt;dsa_data_linear_lists_circular</title>
<path fill="none" stroke="black" d="M1376.72,-688.27C1430.54,-684.31 1508.43,-678.59 1571.75,-673.93"/>
<polygon fill="black" stroke="black" points="1572.07,-677.42 1581.79,-673.2 1571.56,-670.44 1572.07,-677.42"/>
</g>
<!-- dsa_data_linear_stacks_array -->
<g id="node36" class="node">
<title>dsa_data_linear_stacks_array</title>
<ellipse fill="none" stroke="black" cx="1680.72" cy="-612" rx="95.58" ry="18"/>
<text text-anchor="middle" x="1680.72" y="-608.3" font-family="Times,serif" font-size="14.00">Array&#45;based Stack</text>
</g>
<!-- dsa_data_linear_stacks&#45;&gt;dsa_data_linear_stacks_array -->
<g id="edge35" class="edge">
<title>dsa_data_linear_stacks&#45;&gt;dsa_data_linear_stacks_array</title>
<path fill="none" stroke="black" d="M1353.02,-612C1406.11,-612 1500.89,-612 1574.73,-612"/>
<polygon fill="black" stroke="black" points="1575.01,-615.5 1585.01,-612 1575.01,-608.5 1575.01,-615.5"/>
</g>
<!-- dsa_data_linear_stacks_list -->
<g id="node37" class="node">
<title>dsa_data_linear_stacks_list</title>
<ellipse fill="none" stroke="black" cx="1680.72" cy="-558" rx="121.58" ry="18"/>
<text text-anchor="middle" x="1680.72" y="-554.3" font-family="Times,serif" font-size="14.00">Linked List&#45;based Stack</text>
</g>
<!-- dsa_data_linear_stacks&#45;&gt;dsa_data_linear_stacks_list -->
<g id="edge36" class="edge">
<title>dsa_data_linear_stacks&#45;&gt;dsa_data_linear_stacks_list</title>
<path fill="none" stroke="black" d="M1350.92,-606.32C1405.67,-598.28 1507.62,-583.29 1583.54,-572.13"/>
<polygon fill="black" stroke="black" points="1584.22,-575.57 1593.61,-570.66 1583.2,-568.65 1584.22,-575.57"/>
</g>
<!-- dsa_data_linear_queues_array -->
<g id="node38" class="node">
<title>dsa_data_linear_queues_array</title>
<ellipse fill="none" stroke="black" cx="1680.72" cy="-504" rx="99.38" ry="18"/>
<text text-anchor="middle" x="1680.72" y="-500.3" font-family="Times,serif" font-size="14.00">Array&#45;based Queue</text>
</g>
<!-- dsa_data_linear_queues&#45;&gt;dsa_data_linear_queues_array -->
<g id="edge37" class="edge">
<title>dsa_data_linear_queues&#45;&gt;dsa_data_linear_queues_array</title>
<path fill="none" stroke="black" d="M1356.98,-504C1409.75,-504 1499.38,-504 1570.81,-504"/>
<polygon fill="black" stroke="black" points="1571.21,-507.5 1581.21,-504 1571.21,-500.5 1571.21,-507.5"/>
</g>
<!-- dsa_data_linear_queues_list -->
<g id="node39" class="node">
<title>dsa_data_linear_queues_list</title>
<ellipse fill="none" stroke="black" cx="1680.72" cy="-450" rx="125.38" ry="18"/>
<text text-anchor="middle" x="1680.72" y="-446.3" font-family="Times,serif" font-size="14.00">Linked List&#45;based Queue</text>
</g>
<!-- dsa_data_linear_queues&#45;&gt;dsa_data_linear_queues_list -->
<g id="edge38" class="edge">
<title>dsa_data_linear_queues&#45;&gt;dsa_data_linear_queues_list</title>
<path fill="none" stroke="black" d="M1354.09,-497.86C1409.15,-489.77 1507.69,-475.28 1582,-464.36"/>
<polygon fill="black" stroke="black" points="1582.93,-467.76 1592.31,-462.85 1581.91,-460.84 1582.93,-467.76"/>
</g>
<!-- dsa_data_nonlinear_trees_binary -->
<g id="node40" class="node">
<title>dsa_data_nonlinear_trees_binary</title>
<ellipse fill="none" stroke="black" cx="1680.72" cy="-396" rx="70.39" ry="18"/>
<text text-anchor="middle" x="1680.72" y="-392.3" font-family="Times,serif" font-size="14.00">Binary Trees</text>
</g>
<!-- dsa_data_nonlinear_trees&#45;&gt;dsa_data_nonlinear_trees_binary -->
<g id="edge39" class="edge">
<title>dsa_data_nonlinear_trees&#45;&gt;dsa_data_nonlinear_trees_binary</title>
<path fill="none" stroke="black" d="M1344.91,-322.3C1391.53,-332.73 1479.94,-352.45 1555.28,-369 1575.14,-373.36 1596.79,-378.07 1616.38,-382.32"/>
<polygon fill="black" stroke="black" points="1615.9,-385.8 1626.42,-384.5 1617.38,-378.96 1615.9,-385.8"/>
</g>
<!-- dsa_data_nonlinear_trees_avl -->
<g id="node41" class="node">
<title>dsa_data_nonlinear_trees_avl</title>
<ellipse fill="none" stroke="black" cx="1680.72" cy="-342" rx="57.69" ry="18"/>
<text text-anchor="middle" x="1680.72" y="-338.3" font-family="Times,serif" font-size="14.00">AVL Trees</text>
</g>
<!-- dsa_data_nonlinear_trees&#45;&gt;dsa_data_nonlinear_trees_avl -->
<g id="edge40" class="edge">
<title>dsa_data_nonlinear_trees&#45;&gt;dsa_data_nonlinear_trees_avl</title>
<path fill="none" stroke="black" d="M1347.53,-317.59C1408.81,-322.09 1535.93,-331.43 1613.93,-337.17"/>
<polygon fill="black" stroke="black" points="1613.89,-340.67 1624.12,-337.91 1614.41,-333.69 1613.89,-340.67"/>
</g>
<!-- dsa_data_nonlinear_trees_b -->
<g id="node42" class="node">
<title>dsa_data_nonlinear_trees_b</title>
<ellipse fill="none" stroke="black" cx="1680.72" cy="-288" rx="44.39" ry="18"/>
<text text-anchor="middle" x="1680.72" y="-284.3" font-family="Times,serif" font-size="14.00">B&#45;trees</text>
</g>
<!-- dsa_data_nonlinear_trees&#45;&gt;dsa_data_nonlinear_trees_b -->
<g id="edge41" class="edge">
<title>dsa_data_nonlinear_trees&#45;&gt;dsa_data_nonlinear_trees_b</title>
<path fill="none" stroke="black" d="M1347.53,-312.41C1412.28,-307.65 1550.56,-297.49 1626.71,-291.9"/>
<polygon fill="black" stroke="black" points="1627.31,-295.36 1637.03,-291.14 1626.8,-288.38 1627.31,-295.36"/>
</g>
<!-- dsa_data_nonlinear_graphs_directed -->
<g id="node43" class="node">
<title>dsa_data_nonlinear_graphs_directed</title>
<ellipse fill="none" stroke="black" cx="1680.72" cy="-234" rx="87.18" ry="18"/>
<text text-anchor="middle" x="1680.72" y="-230.3" font-family="Times,serif" font-size="14.00">Directed Graphs</text>
</g>
<!-- dsa_data_nonlinear_graphs&#45;&gt;dsa_data_nonlinear_graphs_directed -->
<g id="edge42" class="edge">
<title>dsa_data_nonlinear_graphs&#45;&gt;dsa_data_nonlinear_graphs_directed</title>
<path fill="none" stroke="black" d="M1355.16,-210.15C1411.93,-214.32 1513.55,-221.79 1588,-227.26"/>
<polygon fill="black" stroke="black" points="1588.08,-230.78 1598.31,-228.02 1588.6,-223.79 1588.08,-230.78"/>
</g>
<!-- dsa_data_nonlinear_graphs_undirected -->
<g id="node44" class="node">
<title>dsa_data_nonlinear_graphs_undirected</title>
<ellipse fill="none" stroke="black" cx="1680.72" cy="-180" rx="99.38" ry="18"/>
<text text-anchor="middle" x="1680.72" y="-176.3" font-family="Times,serif" font-size="14.00">Undirected Graphs</text>
</g>
<!-- dsa_data_nonlinear_graphs&#45;&gt;dsa_data_nonlinear_graphs_undirected -->
<g id="edge43" class="edge">
<title>dsa_data_nonlinear_graphs&#45;&gt;dsa_data_nonlinear_graphs_undirected</title>
<path fill="none" stroke="black" d="M1355.16,-203.85C1409.4,-199.86 1504.58,-192.87 1577.88,-187.48"/>
<polygon fill="black" stroke="black" points="1578.36,-190.96 1588.07,-186.73 1577.84,-183.98 1578.36,-190.96"/>
</g>
<!-- dsa_data_nonlinear_graphs_weighted -->
<g id="node45" class="node">
<title>dsa_data_nonlinear_graphs_weighted</title>
<ellipse fill="none" stroke="black" cx="1680.72" cy="-126" rx="90.98" ry="18"/>
<text text-anchor="middle" x="1680.72" y="-122.3" font-family="Times,serif" font-size="14.00">Weighted Graphs</text>
</g>
<!-- dsa_data_nonlinear_graphs&#45;&gt;dsa_data_nonlinear_graphs_weighted -->
<g id="edge44" class="edge">
<title>dsa_data_nonlinear_graphs&#45;&gt;dsa_data_nonlinear_graphs_weighted</title>
<path fill="none" stroke="black" d="M1350.58,-198.43C1398.44,-187.73 1482.89,-168.9 1555.28,-153 1572.52,-149.21 1591.1,-145.16 1608.52,-141.38"/>
<polygon fill="black" stroke="black" points="1609.59,-144.73 1618.63,-139.19 1608.11,-137.89 1609.59,-144.73"/>
</g>
<!-- dsa_data_nonlinear_heaps_min -->
<g id="node46" class="node">
<title>dsa_data_nonlinear_heaps_min</title>
<ellipse fill="none" stroke="black" cx="1680.72" cy="-72" rx="55.79" ry="18"/>
<text text-anchor="middle" x="1680.72" y="-68.3" font-family="Times,serif" font-size="14.00">Min Heap</text>
</g>
<!-- dsa_data_nonlinear_heaps&#45;&gt;dsa_data_nonlinear_heaps_min -->
<g id="edge45" class="edge">
<title>dsa_data_nonlinear_heaps&#45;&gt;dsa_data_nonlinear_heaps_min</title>
<path fill="none" stroke="black" d="M1351.62,-72C1414.38,-72 1537.9,-72 1614.18,-72"/>
<polygon fill="black" stroke="black" points="1614.62,-75.5 1624.62,-72 1614.62,-68.5 1614.62,-75.5"/>
</g>
<!-- dsa_data_nonlinear_heaps_max -->
<g id="node47" class="node">
<title>dsa_data_nonlinear_heaps_max</title>
<ellipse fill="none" stroke="black" cx="1680.72" cy="-18" rx="57.69" ry="18"/>
<text text-anchor="middle" x="1680.72" y="-14.3" font-family="Times,serif" font-size="14.00">Max Heap</text>
</g>
<!-- dsa_data_nonlinear_heaps&#45;&gt;dsa_data_nonlinear_heaps_max -->
<g id="edge46" class="edge">
<title>dsa_data_nonlinear_heaps&#45;&gt;dsa_data_nonlinear_heaps_max</title>
<path fill="none" stroke="black" d="M1349.89,-66.47C1413.17,-57.18 1541.53,-38.31 1618.12,-27.05"/>
<polygon fill="black" stroke="black" points="1618.73,-30.5 1628.11,-25.58 1617.71,-23.58 1618.73,-30.5"/>
</g>
<!-- backend -->
<g id="node48" class="node">
<title>backend</title>
<ellipse fill="none" stroke="black" cx="95.54" cy="-653" rx="95.58" ry="18"/>
<text text-anchor="middle" x="95.54" y="-649.3" font-family="Times,serif" font-size="14.00">Computer Science</text>
</g>
<!-- backend&#45;&gt;dsa -->
<g id="edge47" class="edge">
<title>backend&#45;&gt;dsa</title>
<path fill="none" stroke="black" d="M191.1,-653C199.43,-653 208.02,-653 216.73,-653"/>
<polygon fill="black" stroke="black" points="217,-656.5 227,-653 217,-649.5 217,-656.5"/>
</g>
</g>
</svg>
